<svg xmlns="http://www.w3.org/2000/svg" viewBox="0 0 262.88 375.83"><defs><style>.cls-1{fill:#008dd2;}</style></defs><title>Izbr.preparati5</title><g id="Слой_2" data-name="Слой 2"><g id="Слой_1-2" data-name="Слой 1"><path class="cls-1" d="M148.93,216.9v-50H114v50a7,7,0,0,1-7,7H58v32h49a7,7,0,0,1,7,7v50h35v-50a7,7,0,0,1,7-7h50v-32h-50a7,7,0,0,1-7-7Z"/><path class="cls-1" d="M221.3,108.52a7,7,0,0,1-4.4-6.51V75H46V102c0,2.86-1.76,4.94-4.42,6.94h0C16.63,119,0,143.63,0,171.06V345.83a30,30,0,0,0,29.88,30H232.73a30.19,30.19,0,0,0,30.15-30V171.06c0-27.58-16.69-52.72-41.58-62.54Zm-1.4,154.36a7,7,0,0,1-7,7h-50v50a7,7,0,0,1-7,7H107a7,7,0,0,1-7-7v-50H51a7,7,0,0,1-7-7v-46a7,7,0,0,1,7-7h49v-50a7,7,0,0,1,7-7h49a7,7,0,0,1,7,7v50h50a7,7,0,0,1,7,7Z"/><rect class="cls-1" x="36.98" width="188.91" height="60.97"/></g></g></svg>