<?xml version="1.0" encoding="UTF-8"?>
<!DOCTYPE svg PUBLIC "-//W3C//DTD SVG 1.1//EN" "http://www.w3.org/Graphics/SVG/1.1/DTD/svg11.dtd">
<!-- Creator: CorelDRAW 2018 (64-Bit) -->
<svg xmlns="http://www.w3.org/2000/svg" xml:space="preserve" width="42.3332mm" height="10.16mm" version="1.1" style="shape-rendering:geometricPrecision; text-rendering:geometricPrecision; image-rendering:optimizeQuality; fill-rule:evenodd; clip-rule:evenodd"
viewBox="0 0 4233.32 1016"
 xmlns:xlink="http://www.w3.org/1999/xlink">
 <defs>
  <style type="text/css">
   <![CDATA[
    .fil2 {fill:#A2D9F7;fill-rule:nonzero}
    .fil1 {fill:#A1C860;fill-rule:nonzero}
    .fil4 {fill:#82BB31;fill-rule:nonzero}
    .fil0 {fill:#008DD2;fill-rule:nonzero}
    .fil3 {fill:#008DD2;fill-rule:nonzero}
   ]]>
  </style>
 </defs>
 <g id="Слой_x0020_1">
  <metadata id="CorelCorpID_0Corel-Layer"/>
  <g id="_914388512">
   <path class="fil0" d="M815.66 580.89c-8.03,20.75 2.19,34.34 24.83,34.34l33.59 0c18.25,0 29.2,-8.59 34.32,-25.04l35.77 -105.15 181.82 0 36.51 105.87c5.12,16.45 16.07,24.32 34.32,24.32l33.59 0c22.64,0 32.86,-13.59 24.83,-34.34l-162.11 -449.22c-5.11,-16.45 -16.06,-24.32 -34.31,-24.32l-46.74 0c-16.79,0 -28.48,7.87 -34.32,24.32l-162.1 449.22zm198.61 -306.87c5.85,-19.31 12.41,-45.07 20.45,-78.69l1.46 0 20.44 78.69 46.01 135.91 -135.09 0 46.73 -135.91zm307.42 454.23c0,20.03 10.22,30.04 30.67,30.04l31.4 0c20.44,0 30.67,-10.01 30.67,-30.04l0 -128.76c0,-12.16 -0.73,-22.89 -2.2,-31.47l1.47 0 3.65 5.72c9.49,15.02 42.35,50.07 103.68,50.07 49.66,0 90.55,-17.17 122.68,-52.22 32.13,-35.05 48.19,-81.55 48.19,-138.77 0,-56.51 -15.33,-103.01 -45.27,-138.06 -29.94,-35.05 -70.1,-52.93 -120.48,-52.93 -52.58,0 -83.98,22.17 -102.96,42.2 -13.88,14.31 -14.61,18.6 -16.8,22.18l-1.46 0 0.73 -14.31 0 -16.45c0,-15.02 -10.22,-25.04 -29.94,-25.04l-23.36 0c-20.45,0 -30.67,10.02 -30.67,30.05l0 447.79zm89.81 -293.29c0,-76.53 41.63,-115.16 94.2,-115.16 54.77,0 92,45.78 92,114.45 0,69.39 -40.16,113.02 -93.46,113.02 -28.48,0 -51.11,-10.73 -67.91,-32.9 -16.8,-22.18 -24.83,-48.65 -24.83,-79.41zm382.63 50.08c0,45.06 14.6,78.68 43.81,100.86 29.21,22.17 62.8,32.9 101.5,32.9 25.55,0 37.96,-10.01 37.96,-30.04l0 -22.17c0,-20.03 -8.03,-27.19 -30.66,-29.33 -40.16,-4.29 -59.88,-27.19 -59.88,-67.96l0 -141.63 54.77 0c19.71,0 29.94,-10.02 29.94,-30.05l0 -12.16c0,-20.02 -10.23,-30.04 -30.67,-30.04l-54.04 0 0 -74.39c0,-20.03 -10.22,-30.05 -30.67,-30.05l-29.21 0c-20.44,0 -30.66,10.02 -30.66,30.05l0 74.39 -21.18 0c-20.44,0 -30.67,10.02 -30.67,30.04l0 12.16c0,20.03 10.23,30.05 29.94,30.05l19.72 0 0 157.37zm234.39 -52.22c0,53.65 18.25,98.72 54.76,135.91 37.24,36.48 85.44,55.08 145.31,55.08 45.28,0 87.63,-12.16 126.33,-36.48 16.06,-9.3 19.71,-22.89 10.22,-40.06l-8.76 -14.3c-8.76,-15.03 -22.64,-18.6 -40.89,-10.02 -25.56,15.74 -52.58,23.61 -80.32,23.61 -59.15,0 -105.88,-37.2 -111.72,-100.15l227.09 0c17.52,0 32.13,-14.31 32.13,-30.76 0,-51.5 -14.61,-92.99 -43.81,-125.18 -29.21,-32.19 -69.37,-48.64 -121.22,-48.64 -56.22,0 -101.5,17.88 -136.55,53.65 -35.05,35.05 -52.57,80.83 -52.57,137.34zm97.11 -41.49c8.77,-49.36 43.09,-80.83 89.82,-80.83 43.08,0 74.48,31.47 75.21,80.83l-165.03 0zm338.82 193.85c0,20.03 10.22,30.05 30.67,30.05l31.39 0c20.45,0 30.67,-10.02 30.67,-30.05l0 -129.47 48.2 0 86.89 138.77c8.03,13.59 19.71,20.75 35.78,20.75l39.43 0c24.1,0 32.86,-15.02 20.45,-35.77l-109.54 -164.53 0 -1.42 92.74 -127.33c13.88,-19.32 5.11,-35.77 -18.98,-35.77l-35.06 0c-16.06,0 -28.47,6.44 -36.5,20.03l-77.4 108.73 -46.01 0 0 -241.78c0,-20.03 -10.22,-30.04 -30.67,-30.04l-31.39 0c-20.45,0 -30.67,10.01 -30.67,30.04l0 447.79zm375.32 -70.81c0,32.19 11.68,58.65 35.78,79.4 24.1,20.03 53.31,30.04 87.62,30.04 48.93,0 81.79,-25.04 99.31,-44.35 13.88,-16.45 15.34,-20.75 17.53,-24.32l1.46 0 -1.46 15.74 0 14.3c0,20.03 10.22,30.05 29.93,30.05l24.83 0c20.45,0 30.67,-10.02 30.67,-30.05l0 -198.14c0,-91.56 -57.68,-145.21 -154.07,-145.21 -41.62,0 -81.78,10.01 -121.95,30.04 -16.79,9.3 -21.17,22.18 -11.68,40.06l7.3 13.59c8.03,16.45 21.91,20.03 40.9,12.16 26.28,-13.59 51.84,-20.74 77.4,-20.74 46,0 69.37,21.46 69.37,64.38l0 8.58 -15.34 0c-48.92,0 -92,5.72 -139.47,22.18 -46.73,16.45 -78.13,51.5 -78.13,102.29zm92.01 -7.87c0,-40.78 42.35,-61.52 126.32,-61.52l15.34 0 0 13.59c0,23.61 -8.04,45.78 -24.1,65.81 -16.07,20.03 -36.51,30.04 -61.34,30.04 -35.05,0 -56.22,-22.17 -56.22,-47.92zm328.58 78.68c0,20.03 10.23,30.05 30.67,30.05l32.13 0c20.45,0 30.67,-10.02 30.67,-30.05l0 -32.19c0,-19.31 -10.22,-29.33 -30.67,-29.33l-32.13 0c-20.44,0 -30.67,10.02 -30.67,29.33l0 32.19zm189.13 -100.14c0,92.28 43.08,138.77 129.25,138.77 59.14,0 109.52,-35.77 129.24,-76.54l1.46 0 -1.46 16.45 0 21.46c0,20.03 10.22,30.05 29.94,30.05l28.47 0c20.45,0 30.67,-10.02 30.67,-30.05l0 -304.72c0,-20.03 -10.22,-30.05 -30.67,-30.05l-31.39 0c-20.45,0 -30.67,10.02 -30.67,30.05l0 137.34c0,34.33 -9.49,63.66 -28.48,87.27 -18.26,23.6 -43.81,35.76 -75.94,35.76 -43.08,0 -57.69,-25.75 -57.69,-74.39l0 -185.98c0,-20.03 -10.22,-30.05 -30.67,-30.05l-31.39 0c-20.45,0 -30.67,10.02 -30.67,30.05l0 204.58zm427.9 105.87c0,16.45 10.22,24.32 30.66,24.32l267.99 0c20.44,0 30.66,-10.02 30.66,-30.05l0 -17.16c0,-20.03 -10.22,-30.05 -30.66,-30.05l-138.74 0c-16.07,0 -27.75,0.72 -35.05,2.15l0 -1.43 4.38 -3.58c5.84,-5.72 18.25,-17.88 27.75,-30.04l154.07 -189.56c8.76,-10.73 13.14,-21.46 13.14,-33.62l0 -7.15c0,-16.46 -10.22,-24.33 -30.66,-24.33l-255.57 0c-20.45,0 -30.67,10.02 -30.67,30.05l0 17.16c0,20.03 10.22,30.05 30.67,30.05l126.32 0c16.06,0 27.75,-0.72 34.32,-1.43l0 1.43 -31.4 33.62 -154.07 188.84c-8.76,10.73 -13.14,21.46 -13.14,33.62l0 7.16z"/>
   <path class="fil1" d="M383.35 367.92c1.67,6.47 -2.25,12.9 -8.84,14.54 -6.52,1.62 -13.1,-2.22 -14.77,-8.68 -1.65,-6.38 2.27,-12.84 8.79,-14.46 6.59,-1.63 13.17,2.22 14.82,8.6z"/>
   <path class="fil1" d="M556.03 594.99c1.65,6.39 -2.32,12.93 -8.84,14.54 -6.52,1.62 -13.19,-2.27 -14.84,-8.66 -1.66,-6.4 2.32,-12.92 8.84,-14.54 6.52,-1.62 13.19,2.26 14.84,8.66z"/>
   <path class="fil2" d="M479.22 656.35c1.65,6.4 -2.34,12.86 -8.86,14.48 -6.52,1.62 -13.17,-2.21 -14.83,-8.61 -1.65,-6.38 2.33,-12.9 8.85,-14.52 6.52,-1.62 13.19,2.26 14.84,8.65z"/>
   <path class="fil2" d="M415.86 472.72c1.66,6.39 -2.32,12.91 -8.84,14.52 -6.54,1.63 -13.18,-2.25 -14.84,-8.64 -1.65,-6.41 2.31,-12.92 8.85,-14.54 6.52,-1.62 13.18,2.26 14.83,8.66z"/>
   <path class="fil2" d="M573.58 496.52c1.65,6.39 -2.33,12.91 -8.84,14.53 -6.54,1.62 -13.19,-2.26 -14.84,-8.65 -1.66,-6.4 2.31,-12.92 8.84,-14.54 6.52,-1.62 13.18,2.26 14.84,8.66z"/>
   <path class="fil1" d="M391.23 557.94c1.65,6.38 -2.31,12.91 -8.84,14.54 -6.52,1.61 -13.19,-2.28 -14.84,-8.67 -1.66,-6.4 2.32,-12.92 8.84,-14.54 6.53,-1.62 13.18,2.26 14.84,8.67z"/>
   <path class="fil3" d="M573.82 403.67l131.12 -215.61c30.99,-51.04 13.92,-117.05 -38.13,-147.48 -52.12,-30.41 -119.5,-13.69 -150.56,37.36l-131.12 215.6 188.69 110.13z"/>
   <path class="fil4" d="M333.43 322.76c3.76,14.54 -5.2,29.28 -19.99,32.95 -14.79,3.67 -29.83,-5.11 -33.59,-19.65 -3.75,-14.49 5.22,-29.22 20.01,-32.89 14.79,-3.67 29.83,5.11 33.57,19.59z"/>
   <path class="fil3" d="M473.72 408.44c3.75,14.51 -5.21,29.24 -20.06,32.92 -14.8,3.67 -29.83,-5.1 -33.58,-19.61 -3.76,-14.53 5.2,-29.27 19.99,-32.94 14.85,-3.68 29.89,5.1 33.65,19.63z"/>
   <path class="fil3" d="M647.68 592.21c3.75,14.53 -5.2,29.27 -20.05,32.95 -14.79,3.67 -29.82,-5.11 -33.58,-19.64 -3.75,-14.49 5.21,-29.22 20,-32.89 14.84,-3.68 29.88,5.09 33.63,19.58z"/>
   <path class="fil4" d="M502.92 521.06c4.56,17.63 -6.31,35.51 -24.32,39.98 -17.95,4.46 -36.19,-6.2 -40.75,-23.84 -4.55,-17.58 6.32,-35.45 24.26,-39.9 18.02,-4.47 36.26,6.17 40.81,23.76z"/>
   <path class="fil2" d="M557.92 318.63c-3.06,0.76 -6.36,0.37 -9.26,-1.31 -5.79,-3.38 -7.67,-10.69 -4.23,-16.35l97.15 -159.74c3.46,-5.67 10.91,-7.52 16.69,-4.15 5.84,3.38 7.74,10.72 4.25,16.42l-97.11 159.67c-1.72,2.82 -4.49,4.72 -7.49,5.46z"/>
   <path class="fil4" d="M369.19 432.87l-131.15 215.58c-15.53,25.52 -40.15,42.46 -67.39,49.22 -27.25,6.75 -57.12,3.33 -83.16,-11.88 -52.12,-30.43 -69.18,-96.44 -38.11,-147.49l131.16 -215.59 188.65 110.16z"/>
   <path class="fil1" d="M224.84 394.49c0.77,3 0.36,6.23 -1.36,9.08l-110.41 181.48c-3.45,5.67 -10.96,7.53 -16.76,4.16 -5.77,-3.39 -7.67,-10.75 -4.24,-16.41l110.42 -181.49c3.46,-5.68 10.97,-7.54 16.75,-4.15 2.89,1.69 4.84,4.39 5.6,7.33z"/>
   <path class="fil4" d="M1685.76 959.95l78.65 0c38.55,0 70.87,-20.71 70.87,-61.21 0,-24.05 -13.05,-45.37 -36.37,-52.07l0 -0.61c16.79,-8.52 27.36,-25.27 27.36,-46.28 0,-34.72 -26.43,-54.81 -63.72,-54.81l-76.79 0 0 214.98zm30.78 -124.54l0 -64.26 45.69 0c20.83,0 32.64,12.79 32.64,31.68 0,18.87 -12.43,32.58 -32.32,32.58l-46.01 0zm0 98.35l0 -73.38 49.43 0c22.99,0 37.61,14.92 37.61,36.54 0,22.22 -13.99,36.84 -37.61,36.84l-49.43 0zm147.34 -50.85c0,46.29 34.5,80.7 84.24,80.7 24.56,0 48.49,-9.75 62.79,-24.67l-12.12 -21.62c-12.13,12.48 -31.09,20.71 -48.5,20.71 -32.63,0 -55.63,-24.06 -55.63,-55.42 0,-31.37 23,-54.82 54.7,-54.82 16.48,0 32.95,7.31 43.52,17.67l14.3 -20.71c-14.92,-15.53 -38.24,-22.54 -59.06,-22.54 -49.42,0 -84.24,35.02 -84.24,80.7zm165.68 0c0,45.67 34.2,80.7 83.62,80.7 21.76,0 45.69,-8.23 60.92,-21.93l-12.74 -21.62c-12.44,10.96 -29.53,17.97 -46.32,17.97 -28.29,0 -52.53,-17.97 -54.08,-51.16l114.39 0c0.62,-4.26 1.24,-8.53 1.24,-12.49 0,-39.58 -23.63,-72.17 -68.08,-72.17 -44.75,0 -78.95,31.67 -78.95,80.7zm32.33 -17.36c4.35,-25.58 22.69,-40.5 46,-40.5 20.52,0 37.31,14.01 38.24,40.5l-84.24 0zm259.55 70.04c19.9,-30.45 22.39,-74.3 22.39,-97.45l0 -8.22 47.24 0 0 105.67 -69.63 0zm-50.35 0l0 60.9 28.29 0 0 -36.54 116.56 0 0 36.54 27.67 0 0 -60.9 -22.39 0 0 -129.72 -106.3 0 0 28.32c0,23.75 -2.49,71.86 -24.56,101.4l-19.27 0zm187.12 25.88c46.32,-2.43 64.35,-38.36 64.35,-108.1l0 -23.14 46.31 0 0 129.72 30.16 0 0 -154.08 -105.38 0 0 47.5c0,55.73 -12.43,78.26 -35.44,81.61l0 26.49zm171.59 -1.52l33.26 0 38.54 -55.73 26.43 0 0 55.73 30.15 0 0 -154.08 -62.79 0c-33.26,0 -56.26,16.75 -56.26,48.41 0,23.45 16.16,39.9 34.19,44.77l0 0.3c0,0 -3.73,3.96 -7.15,9.44l-36.37 51.16zm72.12 -77.34c-18.34,0 -32.33,-9.44 -32.33,-28.63 0,-19.79 13.05,-27.71 33.26,-27.71l25.18 0 0 56.34 -26.11 0zm165.37 58.46c13.05,12.18 33.57,22.54 57.81,22.54 32.33,0 60.31,-16.14 60.31,-47.82 0,-19.79 -12.44,-31.36 -28.29,-36.23l0 -0.61c12.43,-5.18 23,-15.83 23,-35.02 0,-27.4 -23.31,-41.72 -53.15,-41.72 -24.87,0 -42.59,7.92 -54.71,16.75l11.19 19.8c12.12,-8.84 24.56,-13.4 38.24,-13.4 17.4,0 27.97,7.91 27.97,22.23 0,15.53 -12.12,22.23 -29.84,22.23l-16.48 0 0 21.31 19.28 0c22.06,0 32.32,8.53 32.32,23.45 0,16.75 -14.61,25.27 -32.63,25.27 -18.97,0 -33.89,-10.96 -41.03,-18.27l-13.99 19.49zm184.01 -5.48c19.9,-30.45 22.39,-74.3 22.39,-97.45l0 -8.22 47.24 0 0 105.67 -69.63 0zm-50.35 0l0 60.9 28.29 0 0 -36.54 116.56 0 0 36.54 27.67 0 0 -60.9 -22.39 0 0 -129.72 -106.3 0 0 28.32c0,23.75 -2.49,71.86 -24.56,101.4l-19.27 0zm192.1 -52.98c0,46.89 37.92,81 84.86,81 46.63,0 84.55,-34.11 84.55,-81 0,-46.6 -37.92,-80.4 -84.86,-80.4 -46.63,0 -84.55,33.8 -84.55,80.4zm30.77 0c0,-31.98 24.25,-54.82 54.09,-54.82 29.53,0 54.09,22.84 54.09,54.82 0,32.27 -24.56,55.42 -54.09,55.42 -29.84,0 -54.09,-23.15 -54.09,-55.42zm175.01 138.24l30.15 0 0 -70.03c0,-7.92 -1.24,-13.4 -1.24,-13.4l0.62 0c10.87,16.44 28.91,26.19 48.8,26.19 41.34,0 71.18,-31.68 71.18,-80.7 0,-47.81 -26.42,-80.7 -69.01,-80.7 -23,0 -42.89,10.36 -52.84,28.93l-0.62 0c0,0 0.93,-5.17 0.93,-11.57l0 -13.7 -27.97 0 0 214.98zm29.22 -137.33c0,-38.98 21.76,-55.42 45.38,-55.42 26.11,0 44.45,21.62 44.45,55.11 0,35.02 -20.52,54.82 -45.38,54.82 -28.91,0 -44.45,-27.11 -44.45,-54.51zm147.33 -0.91c0,46.89 37.93,81 84.86,81 46.63,0 84.55,-34.11 84.55,-81 0,-46.6 -37.92,-80.4 -84.86,-80.4 -46.62,0 -84.55,33.8 -84.55,80.4zm30.78 0c0,-31.98 24.24,-54.82 54.08,-54.82 29.54,0 54.09,22.84 54.09,54.82 0,32.27 -24.55,55.42 -54.09,55.42 -29.84,0 -54.08,-23.15 -54.08,-55.42zm175 77.34l67.14 0c34.19,0 57.82,-15.23 57.82,-43.85 0,-17.05 -10.26,-31.97 -29.84,-36.54l0 -0.3c14.3,-6.09 22.38,-18.88 22.38,-33.8 0,-25.89 -20.82,-39.59 -52.53,-39.59l-64.97 0 0 154.08zm30.15 -88.91l0 -44.77 28.6 0c18.96,0 27.98,7.31 27.98,21.32 0,14.31 -9.02,23.45 -27.05,23.45l-29.53 0zm0 68.2l0 -48.41 32.02 0c20.83,0 32.33,9.13 32.33,24.36 0,14.31 -10.26,24.05 -32.02,24.05l-32.33 0zm131.49 20.71l61.23 0c39.79,0 57.82,-19.79 57.82,-48.72 0,-35.02 -24.55,-49.64 -57.19,-49.64l-31.71 0 0 -55.72 -30.15 0 0 154.08zm30.15 -21.32l0 -55.72 27.04 0c21.76,0 31.09,11.57 31.09,28.01 0,16.14 -9.33,27.71 -31.09,27.71l-27.04 0zm105.38 21.32l33.26 0 38.54 -55.73 26.42 0 0 55.73 30.15 0 0 -154.08 -62.78 0c-33.27,0 -56.27,16.75 -56.27,48.41 0,23.45 16.17,39.9 34.19,44.77l0 0.3c0,0 -3.72,3.96 -7.14,9.44l-36.37 51.16zm72.11 -77.34c-18.34,0 -32.32,-9.44 -32.32,-28.63 0,-19.79 13.05,-27.71 33.25,-27.71l25.18 0 0 56.34 -26.11 0z"/>
   <path class="fil1" d="M573.49 717.87c1.66,6.4 -2.34,12.87 -8.86,14.49 -6.52,1.62 -13.17,-2.21 -14.83,-8.61 -1.65,-6.38 2.33,-12.9 8.85,-14.52 6.52,-1.62 13.19,2.26 14.84,8.64z"/>
  </g>
 </g>
</svg>
